<mxfile host="65bd71144e">
    <diagram id="YHrgM4Byc39rj-TIG2Ri" name="Page-1">
        <mxGraphModel dx="999" dy="943" grid="1" gridSize="10" guides="1" tooltips="1" connect="1" arrows="1" fold="1" page="1" pageScale="1" pageWidth="850" pageHeight="1100" math="0" shadow="0">
            <root>
                <mxCell id="0"/>
                <mxCell id="1" parent="0"/>
                <mxCell id="2" value="" style="rounded=0;whiteSpace=wrap;html=1;fontSize=10;" parent="1" vertex="1">
                    <mxGeometry x="115.99" y="20" width="724.01" height="530" as="geometry"/>
                </mxCell>
                <mxCell id="3" value="Visitor" style="shape=umlActor;verticalLabelPosition=bottom;verticalAlign=top;html=1;outlineConnect=0;fontSize=10;" parent="1" vertex="1">
                    <mxGeometry x="60" y="49.859154929577464" width="22.394415584415583" height="44.7887323943662" as="geometry"/>
                </mxCell>
                <mxCell id="4" value="User" style="shape=umlActor;verticalLabelPosition=bottom;verticalAlign=top;html=1;outlineConnect=0;fontSize=10;" parent="1" vertex="1">
                    <mxGeometry x="60" y="191.69014084507043" width="22.394415584415583" height="44.7887323943662" as="geometry"/>
                </mxCell>
                <mxCell id="5" value="Admin" style="shape=umlActor;verticalLabelPosition=bottom;verticalAlign=top;html=1;outlineConnect=0;fontSize=10;" parent="1" vertex="1">
                    <mxGeometry x="60" y="340.98591549295776" width="22.394415584415583" height="44.7887323943662" as="geometry"/>
                </mxCell>
                <mxCell id="6" value="Register" style="ellipse;whiteSpace=wrap;html=1;fontSize=10;" parent="1" vertex="1">
                    <mxGeometry x="164.50727272727272" y="64.7887323943662" width="97.04246753246753" height="29.859154929577464" as="geometry"/>
                </mxCell>
                <mxCell id="7" value="Login User" style="ellipse;whiteSpace=wrap;html=1;fontSize=10;" parent="1" vertex="1">
                    <mxGeometry x="164.50727272727272" y="199.1549295774648" width="97.04246753246753" height="29.859154929577464" as="geometry"/>
                </mxCell>
                <mxCell id="8" value="Consulter Icônes publiques" style="ellipse;whiteSpace=wrap;html=1;fontSize=10;" parent="1" vertex="1">
                    <mxGeometry x="321.2681818181818" y="199.1549295774648" width="97.04246753246753" height="29.859154929577464" as="geometry"/>
                </mxCell>
                <mxCell id="9" value="Ajout d'Icônes" style="ellipse;whiteSpace=wrap;html=1;fontSize=10;" parent="1" vertex="1">
                    <mxGeometry x="321.26792207792204" y="279.9984507042253" width="97.04246753246753" height="29.859154929577464" as="geometry"/>
                </mxCell>
                <mxCell id="10" value="Modification d'Icônes" style="ellipse;whiteSpace=wrap;html=1;fontSize=10;" parent="1" vertex="1">
                    <mxGeometry x="659.9979220779221" y="318.59154929577466" width="97.04246753246753" height="29.859154929577464" as="geometry"/>
                </mxCell>
                <mxCell id="11" value="Publication d'Icônes" style="ellipse;whiteSpace=wrap;html=1;fontSize=10;" parent="1" vertex="1">
                    <mxGeometry x="659.9979220779221" y="450.00295774647884" width="97.04246753246753" height="29.859154929577464" as="geometry"/>
                </mxCell>
                <mxCell id="12" value="" style="endArrow=block;html=1;endFill=0;fontSize=10;" parent="1" edge="1">
                    <mxGeometry width="50" height="50" relative="1" as="geometry">
                        <mxPoint x="71.19720779220779" y="333.5211267605634" as="sourcePoint"/>
                        <mxPoint x="71.19720779220779" y="258.8732394366197" as="targetPoint"/>
                    </mxGeometry>
                </mxCell>
                <mxCell id="13" value="" style="endArrow=block;html=1;endFill=0;fontSize=10;" parent="1" edge="1">
                    <mxGeometry width="50" height="50" relative="1" as="geometry">
                        <mxPoint x="71.19720779220779" y="187.2112676056338" as="sourcePoint"/>
                        <mxPoint x="71.19720779220779" y="112.56338028169014" as="targetPoint"/>
                    </mxGeometry>
                </mxCell>
                <mxCell id="14" value="" style="endArrow=classic;html=1;entryX=0;entryY=0.5;entryDx=0;entryDy=0;fontSize=10;" parent="1" target="6" edge="1">
                    <mxGeometry width="50" height="50" relative="1" as="geometry">
                        <mxPoint x="89.85922077922078" y="79.71830985915493" as="sourcePoint"/>
                        <mxPoint x="306.3385714285714" y="169.29577464788733" as="targetPoint"/>
                    </mxGeometry>
                </mxCell>
                <mxCell id="15" value="" style="endArrow=classic;html=1;entryX=0;entryY=0.5;entryDx=0;entryDy=0;fontSize=10;" parent="1" target="7" edge="1">
                    <mxGeometry width="50" height="50" relative="1" as="geometry">
                        <mxPoint x="89.85922077922078" y="214.08450704225353" as="sourcePoint"/>
                        <mxPoint x="171.97207792207791" y="87.1830985915493" as="targetPoint"/>
                    </mxGeometry>
                </mxCell>
                <mxCell id="16" value="" style="endArrow=classic;html=1;entryX=0;entryY=0.5;entryDx=0;entryDy=0;exitX=1;exitY=0.5;exitDx=0;exitDy=0;dashed=1;fontSize=10;" parent="1" source="7" target="8" edge="1">
                    <mxGeometry width="50" height="50" relative="1" as="geometry">
                        <mxPoint x="89.85922077922078" y="214.08450704225353" as="sourcePoint"/>
                        <mxPoint x="171.97207792207791" y="199.1549295774648" as="targetPoint"/>
                    </mxGeometry>
                </mxCell>
                <mxCell id="18" value="" style="endArrow=classic;html=1;entryX=0;entryY=0.5;entryDx=0;entryDy=0;exitX=1;exitY=0.5;exitDx=0;exitDy=0;dashed=1;fontSize=10;" parent="1" source="47" target="64" edge="1">
                    <mxGeometry width="50" height="50" relative="1" as="geometry">
                        <mxPoint x="89.85922077922078" y="363.38028169014086" as="sourcePoint"/>
                        <mxPoint x="171.97207792207791" y="348.4507042253521" as="targetPoint"/>
                    </mxGeometry>
                </mxCell>
                <mxCell id="19" value="" style="endArrow=classic;html=1;entryX=0;entryY=0.5;entryDx=0;entryDy=0;dashed=1;exitX=1;exitY=0.5;exitDx=0;exitDy=0;fontSize=10;" parent="1" source="65" target="11" edge="1">
                    <mxGeometry width="50" height="50" relative="1" as="geometry">
                        <mxPoint x="395.91623376623374" y="363.38028169014086" as="sourcePoint"/>
                        <mxPoint x="179.4368831168831" y="355.9154929577465" as="targetPoint"/>
                    </mxGeometry>
                </mxCell>
                <mxCell id="24" value="" style="endArrow=block;dashed=1;html=1;dashPattern=1 3;strokeWidth=2;entryX=0.5;entryY=0;entryDx=0;entryDy=0;exitX=0.5;exitY=1;exitDx=0;exitDy=0;endFill=1;fontSize=10;" parent="1" source="6" target="7" edge="1">
                    <mxGeometry width="50" height="50" relative="1" as="geometry">
                        <mxPoint x="213.02850649350648" y="102.11267605633803" as="sourcePoint"/>
                        <mxPoint x="295.1413636363636" y="169.29577464788733" as="targetPoint"/>
                    </mxGeometry>
                </mxCell>
                <mxCell id="26" value="include" style="text;strokeColor=none;align=center;fillColor=none;html=1;verticalAlign=middle;whiteSpace=wrap;rounded=0;fontSize=10;" parent="1" vertex="1">
                    <mxGeometry x="209.2961038961039" y="102.11267605633803" width="44.788831168831166" height="22.3943661971831" as="geometry"/>
                </mxCell>
                <mxCell id="31" value="Suppression d'Icônes" style="ellipse;whiteSpace=wrap;html=1;fontSize=10;" parent="1" vertex="1">
                    <mxGeometry x="659.9979220779221" y="383.53521126760563" width="97.04246753246753" height="29.859154929577464" as="geometry"/>
                </mxCell>
                <mxCell id="32" value="" style="endArrow=classic;html=1;dashed=1;exitX=1;exitY=0.5;exitDx=0;exitDy=0;fontSize=10;" parent="1" source="64" target="31" edge="1">
                    <mxGeometry width="50" height="50" relative="1" as="geometry">
                        <mxPoint x="395.91623376623374" y="326.056338028169" as="sourcePoint"/>
                        <mxPoint x="306.33857142857005" y="430.5633802816901" as="targetPoint"/>
                    </mxGeometry>
                </mxCell>
                <mxCell id="35" value="Login Admin" style="ellipse;whiteSpace=wrap;html=1;fontSize=10;" parent="1" vertex="1">
                    <mxGeometry x="164.50727272727272" y="348.4507042253521" width="97.04246753246753" height="29.859154929577464" as="geometry"/>
                </mxCell>
                <mxCell id="36" value="" style="endArrow=classic;html=1;entryX=0;entryY=0.5;entryDx=0;entryDy=0;fontSize=10;" parent="1" edge="1">
                    <mxGeometry width="50" height="50" relative="1" as="geometry">
                        <mxPoint x="89.85922077922086" y="363.06676056338034" as="sourcePoint"/>
                        <mxPoint x="164.50727272727272" y="363.06676056338034" as="targetPoint"/>
                    </mxGeometry>
                </mxCell>
                <mxCell id="39" value="extend" style="text;strokeColor=none;align=center;fillColor=none;html=1;verticalAlign=middle;whiteSpace=wrap;rounded=0;fontSize=10;" parent="1" vertex="1">
                    <mxGeometry x="269.01454545454544" y="191.69014084507043" width="44.788831168831166" height="22.3943661971831" as="geometry"/>
                </mxCell>
                <mxCell id="40" value="extend" style="text;strokeColor=none;align=center;fillColor=none;html=1;verticalAlign=middle;whiteSpace=wrap;rounded=0;fontSize=10;" parent="1" vertex="1">
                    <mxGeometry x="260.8032597402597" y="361.14084507042253" width="44.788831168831166" height="22.3943661971831" as="geometry"/>
                </mxCell>
                <mxCell id="47" value="Consulter Icônes publiques" style="ellipse;whiteSpace=wrap;html=1;fontSize=10;" parent="1" vertex="1">
                    <mxGeometry x="321.2637662337662" y="348.4507042253521" width="97.04246753246753" height="29.859154929577464" as="geometry"/>
                </mxCell>
                <mxCell id="48" value="" style="endArrow=classic;html=1;entryX=0;entryY=0.5;entryDx=0;entryDy=0;dashed=1;fontSize=10;" parent="1" target="47" edge="1">
                    <mxGeometry width="50" height="50" relative="1" as="geometry">
                        <mxPoint x="261.54974025974025" y="363.38028169014086" as="sourcePoint"/>
                        <mxPoint x="298.8737662337662" y="423.0985915492958" as="targetPoint"/>
                    </mxGeometry>
                </mxCell>
                <mxCell id="49" value="" style="endArrow=classic;html=1;entryX=0;entryY=0.5;entryDx=0;entryDy=0;exitX=1;exitY=0;exitDx=0;exitDy=0;dashed=1;fontSize=10;" parent="1" source="35" target="9" edge="1">
                    <mxGeometry width="50" height="50" relative="1" as="geometry">
                        <mxPoint x="276.47935064935064" y="378.3098591549296" as="sourcePoint"/>
                        <mxPoint x="306.3385714285714" y="430.5633802816901" as="targetPoint"/>
                    </mxGeometry>
                </mxCell>
                <mxCell id="51" value="extend" style="text;strokeColor=none;align=center;fillColor=none;html=1;verticalAlign=middle;whiteSpace=wrap;rounded=0;fontSize=10;" parent="1" vertex="1">
                    <mxGeometry x="224.22532467532466" y="305.1539436619718" width="44.788831168831166" height="22.3943661971831" as="geometry"/>
                </mxCell>
                <mxCell id="53" value="extend" style="text;strokeColor=none;align=center;fillColor=none;html=1;verticalAlign=middle;whiteSpace=wrap;rounded=0;fontSize=10;" parent="1" vertex="1">
                    <mxGeometry x="418.30344155844153" y="409.99929577464786" width="44.788831168831166" height="22.3943661971831" as="geometry"/>
                </mxCell>
                <mxCell id="54" value="extend" style="text;strokeColor=none;align=center;fillColor=none;html=1;verticalAlign=middle;whiteSpace=wrap;rounded=0;fontSize=10;" parent="1" vertex="1">
                    <mxGeometry x="565.0028831168831" y="367.1395774647888" width="44.788831168831166" height="22.3943661971831" as="geometry"/>
                </mxCell>
                <mxCell id="55" value="extend" style="text;strokeColor=none;align=center;fillColor=none;html=1;verticalAlign=middle;whiteSpace=wrap;rounded=0;fontSize=10;" parent="1" vertex="1">
                    <mxGeometry x="556.0058441558441" y="394.7281690140845" width="44.788831168831166" height="22.3943661971831" as="geometry"/>
                </mxCell>
                <mxCell id="56" value="Consulter Icônes &lt;br style=&quot;font-size: 10px;&quot;&gt;privés" style="ellipse;whiteSpace=wrap;html=1;fontSize=10;" parent="1" vertex="1">
                    <mxGeometry x="321.26376623376626" y="417.1242253521127" width="97.04246753246753" height="29.859154929577464" as="geometry"/>
                </mxCell>
                <mxCell id="57" value="" style="endArrow=classic;html=1;entryX=0;entryY=0.5;entryDx=0;entryDy=0;dashed=1;exitX=1;exitY=1;exitDx=0;exitDy=0;fontSize=10;" parent="1" source="35" target="56" edge="1">
                    <mxGeometry width="50" height="50" relative="1" as="geometry">
                        <mxPoint x="269.01454545454544" y="370.84507042253523" as="sourcePoint"/>
                        <mxPoint x="306.3385714285714" y="370.84507042253523" as="targetPoint"/>
                    </mxGeometry>
                </mxCell>
                <mxCell id="58" value="extend" style="text;strokeColor=none;align=center;fillColor=none;html=1;verticalAlign=middle;whiteSpace=wrap;rounded=0;fontSize=10;" parent="1" vertex="1">
                    <mxGeometry x="231.69051948051947" y="393.23943661971833" width="44.788831168831166" height="22.3943661971831" as="geometry"/>
                </mxCell>
                <mxCell id="59" value="" style="endArrow=classic;html=1;dashed=1;entryX=0;entryY=0.5;entryDx=0;entryDy=0;fontSize=10;exitX=1;exitY=0.5;exitDx=0;exitDy=0;" parent="1" source="64" target="10" edge="1">
                    <mxGeometry width="50" height="50" relative="1" as="geometry">
                        <mxPoint x="389.1694986224468" y="360.28826495693335" as="sourcePoint"/>
                        <mxPoint x="530.2827272727272" y="340.98591549295776" as="targetPoint"/>
                    </mxGeometry>
                </mxCell>
                <mxCell id="60" value="extend" style="text;strokeColor=none;align=center;fillColor=none;html=1;verticalAlign=middle;whiteSpace=wrap;rounded=0;fontSize=10;" parent="1" vertex="1">
                    <mxGeometry x="418.30589610389603" y="340.9898591549296" width="44.788831168831166" height="22.3943661971831" as="geometry"/>
                </mxCell>
                <mxCell id="61" value="" style="endArrow=classic;html=1;dashed=1;entryX=0;entryY=0.5;entryDx=0;entryDy=0;exitX=1;exitY=0.5;exitDx=0;exitDy=0;fontSize=10;" parent="1" source="56" target="65" edge="1">
                    <mxGeometry width="50" height="50" relative="1" as="geometry">
                        <mxPoint x="385.6859585956771" y="411.56915015249444" as="sourcePoint"/>
                        <mxPoint x="544.4942676113194" y="351.5427209585598" as="targetPoint"/>
                    </mxGeometry>
                </mxCell>
                <mxCell id="62" value="extend" style="text;strokeColor=none;align=center;fillColor=none;html=1;verticalAlign=middle;whiteSpace=wrap;rounded=0;fontSize=10;" parent="1" vertex="1">
                    <mxGeometry x="592.2082467532467" y="326.5523943661972" width="44.788831168831166" height="22.3943661971831" as="geometry"/>
                </mxCell>
                <mxCell id="64" value="Selection Icône publique" style="ellipse;whiteSpace=wrap;html=1;fontSize=10;" vertex="1" parent="1">
                    <mxGeometry x="472.9637662337662" y="348.4507042253521" width="97.04246753246753" height="29.859154929577464" as="geometry"/>
                </mxCell>
                <mxCell id="65" value="Selection Icône&lt;br style=&quot;font-size: 10px;&quot;&gt;privé" style="ellipse;whiteSpace=wrap;html=1;fontSize=10;" vertex="1" parent="1">
                    <mxGeometry x="472.96376623376625" y="417.1242253521127" width="97.04246753246753" height="29.859154929577464" as="geometry"/>
                </mxCell>
                <mxCell id="66" value="" style="endArrow=classic;html=1;dashed=1;entryX=0;entryY=1;entryDx=0;entryDy=0;fontSize=10;exitX=1;exitY=0.5;exitDx=0;exitDy=0;" edge="1" parent="1" source="65" target="10">
                    <mxGeometry width="50" height="50" relative="1" as="geometry">
                        <mxPoint x="580.0062337662293" y="373.3802816901409" as="sourcePoint"/>
                        <mxPoint x="669.9979220779273" y="343.52112676056345" as="targetPoint"/>
                    </mxGeometry>
                </mxCell>
                <mxCell id="67" value="" style="endArrow=classic;html=1;dashed=1;entryX=0;entryY=1;entryDx=0;entryDy=0;fontSize=10;exitX=1;exitY=0.5;exitDx=0;exitDy=0;" edge="1" parent="1" source="65" target="31">
                    <mxGeometry width="50" height="50" relative="1" as="geometry">
                        <mxPoint x="580.0062337662293" y="442.05380281690145" as="sourcePoint"/>
                        <mxPoint x="683.7779830314448" y="353.9434786043769" as="targetPoint"/>
                    </mxGeometry>
                </mxCell>
                <mxCell id="68" value="extend" style="text;strokeColor=none;align=center;fillColor=none;html=1;verticalAlign=middle;whiteSpace=wrap;rounded=0;fontSize=10;" vertex="1" parent="1">
                    <mxGeometry x="624.0058441558441" y="411.7281690140845" width="44.788831168831166" height="22.3943661971831" as="geometry"/>
                </mxCell>
                <mxCell id="69" value="extend" style="text;strokeColor=none;align=center;fillColor=none;html=1;verticalAlign=middle;whiteSpace=wrap;rounded=0;fontSize=10;" vertex="1" parent="1">
                    <mxGeometry x="579.9982467532467" y="446.9823943661972" width="44.788831168831166" height="22.3943661971831" as="geometry"/>
                </mxCell>
            </root>
        </mxGraphModel>
    </diagram>
</mxfile>